<svg width="3117" height="3116" xmlns="http://www.w3.org/2000/svg" xmlns:xlink="http://www.w3.org/1999/xlink" overflow="hidden"><defs><clipPath id="clip0"><rect x="774" y="-843" width="3117" height="3116"/></clipPath></defs><g clip-path="url(#clip0)" transform="translate(-774 843)"><rect x="781.5" y="-60.9998" width="2326.5" height="2326.5" fill="#548235" fill-opacity="1"/><path d="M3108-60.9998 3883.5-836.5 3883.5 1490 3108 2265.5Z" fill="#44692B" fill-rule="evenodd" fill-opacity="1"/><path d="M781.5-60.9998 1557-836.5 3883.5-836.5 3108-60.9998Z" fill="#769B5D" fill-rule="evenodd" fill-opacity="1"/><path d="M781.5-60.9998 1557-836.5 3883.5-836.5 3883.5 1490 3108 2265.5 781.5 2265.5ZM781.5-60.9998 3108-60.9998 3883.5-836.5M3108-60.9998 3108 2265.5" stroke="#000000" stroke-width="9.16667" stroke-linecap="butt" stroke-linejoin="miter" stroke-miterlimit="8" stroke-opacity="1" fill="none" fill-rule="evenodd"/><path d="M781.5 2018 1029 2018 1029 2265.5 781.5 2265.5Z" fill="#4472C4" fill-rule="evenodd" fill-opacity="1"/><path d="M1029 2018 1111.5 1935.5 1111.5 2183 1029 2265.5Z" fill="#375C9E" fill-rule="evenodd" fill-opacity="1"/><path d="M781.5 2018 864 1935.5 1111.5 1935.5 1029 2018Z" fill="#698ED0" fill-rule="evenodd" fill-opacity="1"/><path d="M781.5 2018 864 1935.5 1111.5 1935.5 1111.5 2183 1029 2265.5 781.5 2265.5ZM781.5 2018 1029 2018 1111.5 1935.5M1029 2018 1029 2265.5" stroke="#000000" stroke-width="9.16667" stroke-linecap="butt" stroke-linejoin="miter" stroke-miterlimit="8" stroke-opacity="1" fill="none" fill-rule="evenodd"/></g></svg>