<svg width="1260" height="518" xmlns="http://www.w3.org/2000/svg" xmlns:xlink="http://www.w3.org/1999/xlink" overflow="hidden"><defs><clipPath id="clip0"><rect x="1526" y="559" width="1260" height="518"/></clipPath></defs><g clip-path="url(#clip0)" transform="translate(-1526 -559)"><path d="M1528 1076 1762.84 904 2518 904 2283.16 1076Z" fill="#4472C4" fill-rule="evenodd" fill-opacity="1"/><path d="M1870.5 655.5 1870.5 990.738" stroke="#000000" stroke-width="9.16667" stroke-linecap="butt" stroke-linejoin="miter" stroke-miterlimit="8" stroke-opacity="1" fill="none" fill-rule="evenodd"/><path d="M1870.5 650.917 2226.47 650.917 2226.47 660.084 1870.5 660.083ZM2221.89 641.75 2240.22 655.5 2221.89 669.25Z" fill="#000000" fill-rule="nonzero" fill-opacity="1"/><path d="M1870.5 707.917 2162.31 707.917 2162.31 717.084 1870.5 717.083ZM2157.72 698.75 2176.06 712.5 2157.72 726.25Z" fill="#000000" fill-rule="nonzero" fill-opacity="1"/><path d="M1870.5 772.917 2092.03 772.917 2092.03 782.084 1870.5 782.083ZM2087.44 763.75 2105.78 777.5 2087.44 791.25Z" fill="#000000" fill-rule="nonzero" fill-opacity="1"/><path d="M1874.5 829.917 2028.91 829.917 2028.91 839.084 1874.5 839.083ZM2024.33 820.75 2042.66 834.5 2024.33 848.25Z" fill="#000000" fill-rule="nonzero" fill-opacity="1"/><path d="M1871.5 887.917 1968.3 887.917 1968.3 897.084 1871.5 897.083ZM1963.71 878.75 1982.05 892.5 1963.71 906.25Z" fill="#000000" fill-rule="nonzero" fill-opacity="1"/><path d="M1874.5 942.917 1912.04 942.917 1912.04 952.083 1874.5 952.083ZM1907.46 933.75 1925.79 947.5 1907.46 961.25Z" fill="#000000" fill-rule="nonzero" fill-opacity="1"/><path d="M2392.5 644.917 2748.47 644.917 2748.47 654.083 2392.5 654.083ZM2743.89 635.75 2762.22 649.5 2743.89 663.25Z" fill="#000000" fill-rule="nonzero" fill-opacity="1"/><path d="M1528 735 1764.21 562 2518 562 2281.79 735Z" fill="#4472C4" fill-rule="evenodd" fill-opacity="0.65098"/><text fill="#000000" fill-opacity="1" font-family="Arial,Arial_MSFontService,sans-serif" font-style="normal" font-variant="normal" font-weight="400" font-stretch="normal" font-size="83" text-anchor="start" direction="ltr" writing-mode="lr-tb" unicode-bidi="normal" text-decoration="none" transform="matrix(1 0 0 1 2162.11 819)">u<tspan fill="#000000" fill-opacity="1" font-family="Arial,Arial_MSFontService,sans-serif" font-style="normal" font-variant="normal" font-weight="400" font-stretch="normal" font-size="83" text-anchor="start" direction="ltr" writing-mode="lr-tb" unicode-bidi="normal" text-decoration="none" x="-545.264" y="60">y</tspan></text><path d="M4.58333-7.68634e-06 4.58367 201.449-4.583 201.449-4.58333 7.68634e-06ZM13.7503 196.865 0.000360892 215.199-13.7497 196.865Z" fill="#000000" fill-rule="nonzero" fill-opacity="1" transform="matrix(1 0 0 -1 1578.5 992.699)"/></g></svg>